<?xml version="1.0" standalone="no"?>
<!DOCTYPE svg PUBLIC "-//W3C//DTD SVG 20010904//EN"
 "http://www.w3.org/TR/2001/REC-SVG-20010904/DTD/svg10.dtd">
<svg version="1.0" xmlns="http://www.w3.org/2000/svg"
 width="1024.000000pt" height="1024.000000pt" viewBox="0 0 1024.000000 1024.000000"
 preserveAspectRatio="xMidYMid meet">

<g transform="translate(0.000000,1024.000000) scale(0.100000,-0.100000)"
fill="#2563eb" stroke="none">
<path d="M4810 7884 c-218 -26 -461 -99 -720 -214 -335 -149 -604 -334 -1056
-726 -139 -121 -714 -697 -714 -716 0 -14 437 -461 593 -606 439 -410 701
-602 1069 -782 245 -121 448 -189 693 -234 561 -104 1076 -24 1617 250 421
214 842 552 1391 1117 130 135 237 249 237 255 0 17 -473 493 -650 655 -282
257 -570 481 -785 609 -219 131 -513 260 -720 317 -313 86 -648 112 -955 75z
m625 -263 c504 -88 971 -331 1490 -777 162 -140 637 -602 633 -616 -8 -24
-388 -404 -520 -520 -384 -338 -645 -521 -953 -669 -172 -83 -299 -127 -475
-167 -210 -47 -298 -57 -500 -56 -145 0 -213 5 -315 23 -295 51 -420 92 -670
215 -393 195 -742 464 -1235 954 l-225 224 205 201 c475 467 867 772 1229 956
221 112 539 215 746 240 50 6 101 13 115 15 63 11 362 -4 475 -23z"/>
<path d="M4860 7295 c-244 -42 -466 -127 -745 -286 -168 -95 -275 -171 -432
-304 -133 -114 -493 -462 -493 -478 0 -31 413 -421 605 -570 302 -235 651
-408 967 -479 93 -21 128 -23 353 -23 226 0 260 2 355 23 173 39 336 98 505
182 329 163 541 324 879 668 100 100 183 188 185 193 9 29 -466 477 -667 628
-239 180 -567 338 -855 412 -190 48 -484 64 -657 34z m522 -264 c325 -70 680
-250 971 -493 40 -33 132 -116 205 -185 l134 -126 -119 -119 c-387 -391 -789
-616 -1247 -698 -305 -55 -636 12 -996 202 -130 68 -301 179 -405 262 -100 81
-375 338 -375 352 0 13 220 216 360 334 294 245 721 445 1055 494 73 11 323
-3 417 -23z"/>
<path d="M5055 6693 c-136 -18 -269 -105 -346 -224 -132 -206 -67 -506 138
-637 158 -101 388 -101 543 -2 158 102 243 319 195 499 -63 238 -293 396 -530
364z"/>
</g>
</svg>
