<?xml version="1.0" standalone="no"?>
<!DOCTYPE svg PUBLIC "-//W3C//DTD SVG 20010904//EN"
 "http://www.w3.org/TR/2001/REC-SVG-20010904/DTD/svg10.dtd">
<svg version="1.0" xmlns="http://www.w3.org/2000/svg"
 width="1024.000000pt" height="1024.000000pt" viewBox="0 0 1024.000000 1024.000000"
 preserveAspectRatio="xMidYMid meet">

<g transform="translate(0.000000,1024.000000) scale(0.100000,-0.100000)"
fill="#2563eb" stroke="none">
<path d="M4810 7884 c-218 -26 -461 -99 -720 -214 -335 -149 -604 -334 -1056
-726 -139 -121 -714 -697 -714 -716 0 -14 437 -461 593 -606 439 -410 701
-602 1069 -782 245 -121 448 -189 693 -234 561 -104 1076 -24 1617 250 421
214 842 552 1391 1117 130 135 237 249 237 255 0 17 -473 493 -650 655 -282
257 -570 481 -785 609 -219 131 -513 260 -720 317 -313 86 -648 112 -955 75z
m625 -263 c504 -88 971 -331 1490 -777 162 -140 637 -602 633 -616 -8 -24
-388 -404 -520 -520 -384 -338 -645 -521 -953 -669 -172 -83 -299 -127 -475
-167 -210 -47 -298 -57 -500 -56 -145 0 -213 5 -315 23 -295 51 -420 92 -670
215 -393 195 -742 464 -1235 954 l-225 224 205 201 c475 467 867 772 1229 956
221 112 539 215 746 240 50 6 101 13 115 15 63 11 362 -4 475 -23z"/>
<path d="M4860 7295 c-244 -42 -466 -127 -745 -286 -168 -95 -275 -171 -432
-304 -133 -114 -493 -462 -493 -478 0 -31 413 -421 605 -570 302 -235 651
-408 967 -479 93 -21 128 -23 353 -23 226 0 260 2 355 23 173 39 336 98 505
182 329 163 541 324 879 668 100 100 183 188 185 193 9 29 -466 477 -667 628
-239 180 -567 338 -855 412 -190 48 -484 64 -657 34z m522 -264 c325 -70 680
-250 971 -493 40 -33 132 -116 205 -185 l134 -126 -119 -119 c-387 -391 -789
-616 -1247 -698 -305 -55 -636 12 -996 202 -130 68 -301 179 -405 262 -100 81
-375 338 -375 352 0 13 220 216 360 334 294 245 721 445 1055 494 73 11 323
-3 417 -23z"/>
<path d="M5055 6693 c-136 -18 -269 -105 -346 -224 -132 -206 -67 -506 138
-637 158 -101 388 -101 543 -2 158 102 243 319 195 499 -63 238 -293 396 -530
364z"/>
<path d="M4925 3876 c-61 -27 -85 -83 -61 -140 26 -62 100 -89 184 -66 105 28
108 163 5 206 -40 17 -89 17 -128 0z"/>
<path d="M1520 3854 c-119 -32 -233 -129 -266 -227 -39 -118 -17 -240 59 -323
64 -70 148 -110 332 -158 232 -60 283 -97 272 -194 -6 -53 -50 -104 -113 -128
-61 -23 -184 -16 -246 14 -52 26 -106 89 -115 136 l-6 29 -81 -7 c-45 -3 -98
-9 -119 -12 -36 -6 -38 -8 -32 -38 11 -56 65 -155 109 -199 99 -98 233 -142
416 -134 180 7 300 62 374 170 45 67 60 127 54 231 -3 67 -9 92 -31 128 -58
100 -139 145 -357 200 -240 60 -293 92 -293 176 0 108 123 180 260 152 62 -13
135 -73 155 -125 9 -28 17 -35 38 -35 35 0 201 28 208 35 3 3 -2 30 -12 60
-34 108 -140 207 -265 245 -78 25 -257 27 -341 4z"/>
<path d="M8390 3856 c-111 -31 -221 -119 -261 -209 -19 -42 -24 -69 -24 -142
0 -81 3 -96 30 -145 37 -67 113 -130 192 -160 32 -12 125 -39 207 -61 205 -54
246 -82 246 -168 0 -97 -87 -161 -219 -161 -124 0 -199 46 -246 149 l-19 44
-91 -7 c-135 -10 -138 -12 -130 -55 19 -112 115 -230 228 -281 95 -43 159 -53
288 -47 216 9 361 96 414 248 23 63 19 203 -6 259 -52 116 -143 169 -397 232
-212 52 -257 81 -257 168 0 61 25 97 90 129 119 60 270 13 320 -100 11 -23 25
-39 35 -39 27 0 212 29 217 34 3 3 -2 27 -11 54 -41 122 -153 221 -291 258
-62 17 -254 17 -315 0z"/>
<path d="M7240 3245 l0 -616 118 3 117 3 -2 610 -2 610 -115 3 -116 3 0 -616z"/>
<path d="M7690 3245 l0 -615 115 0 115 0 0 615 0 615 -115 0 -115 0 0 -615z"/>
<path d="M4286 3698 c-3 -46 -7 -99 -9 -118 l-2 -35 -62 -3 -63 -3 0 -89 0
-90 65 0 65 0 0 -258 c0 -288 7 -336 61 -397 67 -76 204 -112 328 -85 86 18
84 15 74 111 l-8 84 -75 -3 c-65 -3 -79 -1 -102 18 -15 11 -32 38 -38 58 -5
20 -10 135 -10 254 l0 217 113 3 112 3 -2 85 -1 85 -109 3 -110 3 1 117 1 117
-112 3 -111 3 -6 -83z"/>
<path d="M2570 3546 c-68 -19 -127 -53 -177 -99 -57 -52 -86 -98 -114 -179
-29 -83 -32 -262 -5 -353 58 -198 239 -317 456 -302 105 7 179 38 249 102 59
55 131 170 115 185 -5 4 -55 10 -111 14 l-103 6 -25 -40 c-61 -96 -177 -115
-272 -44 -36 27 -93 134 -93 176 l0 28 310 0 310 0 0 66 c0 203 -97 363 -257
424 -72 28 -216 36 -283 16z m207 -185 c47 -22 78 -71 89 -140 l7 -41 -192 0
c-175 0 -191 1 -191 18 0 25 44 114 66 134 55 49 150 61 221 29z"/>
<path d="M3610 3541 c-40 -14 -68 -34 -102 -70 l-47 -51 -3 57 -3 58 -107 3
-108 3 0 -456 0 -455 109 0 109 0 4 293 c4 314 8 338 61 396 73 79 223 61 271
-34 19 -37 21 -62 26 -345 l5 -305 115 0 115 0 0 320 c-1 356 -6 389 -67 481
-69 103 -245 152 -378 105z"/>
<path d="M5689 3546 c-51 -14 -96 -43 -133 -86 -13 -17 -27 -30 -30 -30 -3 0
-6 25 -6 55 l0 55 -110 0 -110 0 2 -452 3 -453 110 0 110 0 5 300 5 300 29 49
c63 108 214 116 288 15 30 -41 38 -121 38 -401 l0 -269 113 3 112 3 0 320 c0
285 -2 328 -19 390 -17 59 -28 78 -71 122 -42 41 -65 55 -120 72 -75 23 -147
26 -216 7z"/>
<path d="M6563 3545 c-80 -22 -131 -52 -188 -109 -53 -53 -97 -132 -114 -207
-16 -66 -13 -236 4 -302 41 -156 145 -261 300 -302 202 -52 414 35 501 206 35
71 33 79 -25 79 -26 0 -75 3 -107 6 l-59 6 -32 -45 c-108 -155 -320 -80 -358
125 l-7 38 313 2 314 3 -2 75 c-3 94 -18 159 -54 231 -36 73 -122 151 -197
179 -74 29 -215 36 -289 15z m224 -191 c30 -22 67 -89 78 -141 l7 -33 -196 0
-196 0 6 28 c17 71 63 133 118 158 45 20 148 14 183 -12z"/>
<path d="M4879 3536 c-2 -2 -3 -207 -1 -455 l2 -451 115 0 115 0 0 455 0 455
-113 0 c-63 0 -116 -2 -118 -4z"/>
</g>
</svg>
